<svg width="329" height="535" viewBox="0 0 329 535" fill="none" xmlns="http://www.w3.org/2000/svg">
<rect x="1.5" y="250.5" width="283" height="283" stroke="#1F3A61" stroke-width="3"/>
<rect x="40" y="209" width="286" height="286" fill="#FFF9F6" stroke="white" stroke-width="6"/>
<path d="M141.861 491.05H146.4L183.351 310.889H174.008L141.861 491.05Z" fill="#C7C7C7"/>
<path d="M151.758 470.859H158.647V404.189H151.758V470.859Z" fill="#A6AEBA"/>
<path d="M149.673 404.163H160.732V394.45H149.673V404.163Z" fill="#D2DCEB"/>
<path d="M151.046 466.003H159.386V445.205H151.046V466.003Z" fill="#D2DCEB"/>
<path d="M149.673 475.716H160.732V466.003H149.673V475.716Z" fill="#D2DCEB"/>
<path d="M141.781 394.477H168.597V376.107H141.781V394.477Z" fill="#A6AEBA"/>
<path d="M120.587 384.368H192.536C193.323 384.368 193.961 383.73 193.961 382.942V372.042C193.961 371.255 193.323 370.617 192.536 370.617H120.587C119.8 370.617 119.162 371.255 119.162 372.042V382.942C119.162 383.73 119.8 384.368 120.587 384.368Z" fill="#919CAD"/>
<path d="M128.558 484.98L149.673 474.528V467.217L125.787 483.238L128.558 484.98Z" fill="#A6AEBA"/>
<path d="M125.787 491.974C128.513 491.974 130.723 489.764 130.723 487.038C130.723 484.312 128.513 482.103 125.787 482.103C123.061 482.103 120.851 484.312 120.851 487.038C120.851 489.764 123.061 491.974 125.787 491.974Z" fill="#A6AEBA"/>
<path d="M155.216 491.974C157.942 491.974 160.151 489.764 160.151 487.038C160.151 484.312 157.942 482.103 155.216 482.103C152.49 482.103 150.28 484.312 150.28 487.038C150.28 489.764 152.49 491.974 155.216 491.974Z" fill="#A6AEBA"/>
<path d="M181.847 484.98L160.732 474.528V467.217L184.644 483.238L181.847 484.98Z" fill="#A6AEBA"/>
<path d="M189.58 487.038C189.58 488.021 189.288 488.981 188.742 489.798C188.196 490.614 187.419 491.25 186.511 491.625C185.603 492 184.604 492.096 183.64 491.903C182.677 491.709 181.793 491.234 181.1 490.537C180.407 489.841 179.937 488.954 179.748 487.99C179.56 487.026 179.662 486.027 180.041 485.121C180.421 484.215 181.061 483.442 181.881 482.9C182.7 482.358 183.662 482.071 184.644 482.076C185.295 482.076 185.939 482.205 186.539 482.454C187.14 482.704 187.685 483.07 188.144 483.531C188.602 483.992 188.965 484.539 189.212 485.141C189.458 485.743 189.584 486.388 189.58 487.038V487.038Z" fill="#A6AEBA"/>
<path d="M153.843 486.986H156.535V470.859H153.843V486.986Z" fill="#A6AEBA"/>
<path d="M106.704 378.139C105.502 378.175 104.324 377.8 103.364 377.075C102.404 376.35 101.72 375.32 101.426 374.153C99.6047 366.71 96.3319 352.775 96.1471 318.014C95.7806 291.063 92.156 264.255 85.3522 238.174C84.9765 236.518 85.1432 234.785 85.8275 233.231C86.5118 231.677 87.6776 230.384 89.1528 229.543V229.543C90.7566 228.61 92.5758 228.109 94.4315 228.092H161.339C161.339 228.092 188.735 277.104 192.325 293.917C195.914 310.73 200.956 375.183 200.956 375.183L106.704 378.139Z" fill="#E1E1E1"/>
<path d="M108.869 378.271C108.869 378.271 102.64 366.051 102.561 318.014C102.561 278.424 94.6427 245.881 92.3465 233.291C92.2293 232.65 92.2558 231.991 92.4242 231.361C92.5926 230.731 92.8986 230.146 93.3202 229.649C93.7418 229.151 94.2685 228.754 94.8623 228.485C95.4561 228.215 96.1023 228.081 96.7542 228.092H167.594C167.594 228.092 195.017 277.105 198.607 293.917C202.196 310.73 207.211 375.183 207.211 375.183L108.869 378.271Z" fill="white"/>
<path d="M173.533 378.271H106.045C105.128 378.271 104.248 377.906 103.6 377.258C102.951 376.609 102.587 375.73 102.587 374.813V363.649H173.533V378.271Z" fill="#A6AEBA"/>
<path d="M129.128 211.2C129.128 211.2 135.803 209.82 136.858 205.333C137.677 201.691 142.642 188.502 142.642 188.502H160.642C160.287 192.955 152.645 197.547 153 202C154.716 210.156 172.572 212.705 172.572 212.705L174.024 238.148L147.63 260.371L122.055 234.691L129.128 211.2Z" fill="#FFD8C8"/>
<path fill-rule="evenodd" clip-rule="evenodd" d="M175.302 161.01C178.844 173.871 183.461 202.78 178.75 207.315H148.949C148.945 207.263 148.942 207.211 148.94 207.159C137.894 205.955 129.303 196.727 129.303 185.523V164.26C129.303 152.237 139.195 142.491 151.397 142.491H153.452C164.534 142.491 173.71 150.529 175.302 161.01Z" fill="#FEF2D5"/>
<path fill-rule="evenodd" clip-rule="evenodd" d="M139.753 186.467C135.018 180.99 131.813 174.279 132.349 166.759C133.892 145.09 164.505 149.857 170.46 160.793C176.415 171.73 174.539 197.522 166.842 199.477C163.773 200.256 158.404 200.295 151.749 196.343L155.926 225.459H131.263L139.753 186.467Z" fill="#FFD8C8"/>
<path fill-rule="evenodd" clip-rule="evenodd" d="M148.204 178.589C149.34 190.616 148.885 204.35 145.498 207.61H115.697C114.036 179.185 130.084 190.192 130.084 163.429C131.084 162.466 132.029 161.513 132.965 160.691L132.932 159.904C138.092 149.494 144.639 144.29 152.573 144.29C164.473 144.29 168.229 149.746 171.427 154.378C169.036 162.463 159.755 163.662 151.508 168.701C150.536 167.923 149.297 167.457 147.947 167.457C144.825 167.457 142.295 169.95 142.295 173.026C142.295 176.101 144.825 178.594 147.947 178.594C148.033 178.594 148.119 178.593 148.204 178.589Z" fill="#FEF2D5"/>
<path d="M199.979 332.267C209.797 330.156 215.287 333.323 221.094 340.37C226.9 347.417 224.631 364.494 221.094 378.588C217.557 392.682 204.044 486.801 204.044 486.801H194.093C194.093 486.801 191.454 449.85 189.765 422.665C188.076 395.48 194.041 356.866 194.041 356.866L155.876 332.267C155.876 332.267 191.164 334.194 199.979 332.267Z" fill="#DCCAC2"/>
<path d="M199.504 318.648C207.026 325.643 229.091 337.467 224.683 352.036L195.123 364.573C195.123 364.573 165.087 353.673 155.876 332.267L146.664 310.889L166.459 302.971L199.504 318.648Z" fill="#DCCAC2"/>
<path d="M177.914 337.466C183.351 341.399 198.052 347.865 195.123 364.572C193.618 373.097 169.574 424.591 156.456 446.234C149.779 457.266 137.981 480.334 137.981 480.334L126.816 482.973C126.816 482.973 135.289 455.075 141.174 429.131C147.06 403.186 164.163 372.332 164.163 372.332C157.122 367.593 149.748 363.368 142.098 359.689C132.702 355.572 127.635 353.883 141.755 340.369C155.876 326.856 167.33 329.812 177.914 337.466Z" fill="#E7D5CD"/>
<path d="M199.504 257.837C200.707 263.694 202.659 269.371 205.31 274.729C207.607 278.847 256.144 296.715 256.144 296.715H227.824C227.824 296.715 200.876 293.178 193.196 282.832C187.603 274.903 182.643 266.546 178.363 257.837H199.504Z" fill="#FEC4AD"/>
<path d="M182.163 216.241C187.178 218.485 191.797 231.154 195.36 241.948C197.33 247.046 198.677 252.364 199.372 257.785C199.372 257.785 186.439 265.201 179.55 263.327C179.55 263.327 173.031 239.89 177.518 228.039L182.163 216.241Z" fill="#CDB0B8"/>
<path d="M157.142 319.493C171.289 318.938 185.41 318.595 199.504 318.648C192.668 314.214 186.598 311.099 185.278 309.78C182.348 306.85 183.325 280.747 185.489 272.512C187.653 264.277 187.521 254.934 185.964 250.738C184.407 246.541 182.163 216.241 182.163 216.241L172.635 212.705C172.635 212.705 175.539 234.69 152.471 234.69C129.403 234.69 129.192 211.2 129.192 211.2L114.411 214.473C114.411 214.473 113.303 243.083 113.857 256.069C114.411 269.055 120.508 291.436 122.329 303.313C123.702 312.472 121.168 318.067 119.426 324.798C131.504 320.472 144.34 318.666 157.142 319.493V319.493Z" fill="#E4C9D0"/>
<path d="M138.535 478.434C135.368 477.801 134.233 479.094 131.382 481.074C129.581 482.231 127.504 482.887 125.365 482.974V491.552H147.43L138.535 478.434Z" fill="#0F2648"/>
<path d="M206.023 480.044C206.023 480.044 205.706 483 200.929 484.346C199.494 484.666 197.999 484.589 196.604 484.124C195.209 483.659 193.967 482.824 193.011 481.707L191.955 491.42L229.592 491.631L206.023 480.044Z" fill="#0F2648"/>
<path d="M206.683 294.472C202.46 293.97 198.395 290.011 182.031 289.826C172.73 288.577 163.505 286.815 154.398 284.548C148.898 283.077 143.643 280.809 138.799 277.817C138.799 277.817 132.781 255.436 130.511 241.262C123.834 240.523 117.315 239.679 110.611 238.623C110.373 256.333 122.937 287.82 127.107 290.961C135.236 297.085 154.345 296.768 158.937 296.873C169.495 297.058 214.865 298.272 214.865 298.272C214.865 298.272 218.375 295.844 206.683 294.472Z" fill="#FEC4AD"/>
<path d="M135.843 263.565C135.843 263.565 129.825 228.092 128.057 224.449C119.03 205.182 106.625 215.449 108.446 230.335C109.238 236.67 109.713 253.06 112.933 268.553C120.855 268.707 128.702 266.998 135.843 263.565V263.565Z" fill="#E4C9D0"/>
<path d="M197.023 298.113H214.891L232.707 235.693H219.167L197.023 298.113Z" fill="#A6AEBA"/>
<path d="M202.17 298.113H271.769L289.611 235.693H220.012L202.17 298.113Z" fill="white"/>
<path d="M191.929 301.36H271.796V296.715H191.929V301.36Z" fill="#D2DCEB"/>
<path d="M151.969 301.36H191.903V296.715H151.969V301.36Z" fill="#A6AEBA"/>
<path d="M240.387 269.952C238.382 274.73 239.807 279.876 243.555 281.486C247.303 283.096 252.027 280.483 254.112 275.706C256.197 270.929 254.693 265.756 250.945 264.172C247.197 262.589 242.42 265.175 240.387 269.952Z" fill="#EEEEEE"/>
<path d="M119.426 324.798C116.787 337.467 123.016 365.127 164.295 372.306L187.785 381.834C190.593 378.372 192.617 374.342 193.72 370.023C194.822 365.704 194.977 361.197 194.172 356.813C191.243 342.297 174.747 336.78 163.899 319.229C163.899 319.229 146.849 312.102 135.869 315.903C129.867 317.782 124.284 320.802 119.426 324.798V324.798Z" fill="#E7D5CD"/>
<path d="M73 309.889L323 309.889V300.862L73 300.862V309.889Z" fill="#9B8B8B"/>
<path d="M123.148 491.05H127.687L164.638 309.889H155.295L123.148 491.05Z" fill="#9B8B8B"/>
<rect x="25.0692" y="119.891" width="100" height="70" transform="rotate(-44.4248 25.0692 119.891)" fill="#C4C4C4"/>
<path d="M116.544 141.79L92.7861 143.022L118.253 118.061L116.544 141.79Z" fill="#C4C4C4"/>
<path d="M80.3104 93.1439C77.3799 96.1767 77.0985 99.782 77.233 101.835C75.1763 101.771 71.5828 102.176 68.6523 105.209C64.7325 109.266 65.7388 115.725 70.1497 119.987C73.3752 123.104 81.2309 127.549 97.6008 122.304C97.9833 122.181 98.2789 121.875 98.3882 121.489C103.069 104.948 98.3569 97.2501 95.1312 94.1333C90.8204 89.9679 84.309 89.0056 80.3104 93.1439Z" fill="white"/>
<rect x="212.347" y="66.8013" width="75.5843" height="52.909" transform="rotate(46.2315 212.347 66.8013)" fill="#C4C4C4"/>
<path d="M195.004 135.748L194.278 117.781L212.923 137.245L195.004 135.748Z" fill="#C4C4C4"/>
<rect x="211.988" y="90.2495" width="44" height="5" rx="2.5" transform="rotate(45.4477 211.988 90.2495)" fill="white"/>
<rect x="206.287" y="95.8621" width="44" height="5" rx="2.5" transform="rotate(45.4477 206.287 95.8621)" fill="white"/>
<rect x="200.586" y="101.475" width="20" height="5" rx="2.5" transform="rotate(45.4477 200.586 101.475)" fill="white"/>
<path d="M208.076 27.587C208.196 27.8084 208.561 28.47 209.17 29.5717C209.779 30.6735 210.245 31.5199 210.567 32.1113C210.602 32.1761 210.676 32.3159 210.789 32.5305C210.903 32.7453 210.998 32.9209 211.076 33.0572C211.153 33.1935 211.251 33.3514 211.368 33.531C211.485 33.7103 211.605 33.8609 211.727 33.9819C211.849 34.1034 211.973 34.1947 212.098 34.2565L212.106 34.2605L212.114 34.2646C212.239 34.3263 212.386 34.3692 212.557 34.3927C212.727 34.4166 212.92 34.4205 213.133 34.4049C213.347 34.389 213.532 34.3707 213.687 34.3499C213.843 34.329 214.04 34.2984 214.28 34.2581C214.519 34.2178 214.675 34.1923 214.748 34.1811C215.419 34.081 217.124 33.8279 219.864 33.4217C220.397 33.3412 220.893 33.1713 221.352 32.9123C221.811 32.6536 222.146 32.3099 222.358 31.8815C222.536 31.5235 222.558 31.1532 222.427 30.7708C222.296 30.3884 222.054 30.11 221.701 29.9355L209.726 24.008C209.309 23.8013 208.918 23.7833 208.553 23.9538C208.188 24.1245 207.901 24.4213 207.692 24.8443C207.523 25.1859 207.489 25.63 207.59 26.1763C207.69 26.7225 207.853 27.1928 208.076 27.587Z" fill="#FCDACB"/>
<path d="M220.011 34.5782C217.636 34.9016 215.822 35.1687 214.57 35.3795C214.148 35.4542 213.81 35.5078 213.554 35.5399C213.298 35.572 212.978 35.5754 212.592 35.5498C212.206 35.5244 211.875 35.4431 211.599 35.3062L211.59 35.3021L211.582 35.298C211.306 35.1611 211.04 34.9472 210.786 34.6558C210.532 34.3646 210.34 34.1076 210.21 33.8848C210.081 33.6622 209.918 33.3603 209.722 32.9796C209.255 32.0803 208.371 30.4775 207.068 28.1716C206.861 27.8126 206.704 27.441 206.597 27.0571L203.399 33.5162C203.222 33.8744 203.198 34.2437 203.327 34.6248C203.455 35.006 203.699 35.2851 204.057 35.4623L216.031 41.3898C216.389 41.567 216.759 41.5912 217.14 41.4624C217.521 41.3336 217.8 41.0905 217.977 40.7323L221.175 34.2732C220.813 34.4179 220.425 34.5198 220.011 34.5782Z" fill="#FCDACB"/>
<path d="M114.792 7.76889L119.775 9.3738C120.122 9.48545 120.501 9.41933 120.789 9.19704L124.936 6.0021C125.663 5.4425 126.715 5.95873 126.718 6.8753L126.731 12.1102C126.732 12.4741 126.912 12.8146 127.212 13.02L131.532 15.9768C132.289 16.4945 132.123 17.6552 131.252 17.9409L126.278 19.5714C125.932 19.6849 125.664 19.9614 125.561 20.3106L124.084 25.3326C123.825 26.2122 122.67 26.4133 122.129 25.6728L119.041 21.4457C118.827 21.1517 118.481 20.9822 118.117 20.9923L112.884 21.1396C111.968 21.1652 111.42 20.1292 111.957 19.3861L115.023 15.143C115.237 14.8479 115.291 14.4668 115.169 14.1239L113.412 9.19271C113.104 8.32932 113.92 7.48777 114.792 7.76889Z" fill="#FCDACB"/>
<path d="M162.227 52.7075C162.208 51.996 161.95 51.3712 161.454 50.8329C161.004 50.3448 160.437 50.087 159.752 50.0582C159.066 50.0301 158.479 50.2411 157.991 50.691L155.391 53.0875C155.335 52.9769 155.291 52.8787 155.258 52.7931C155.225 52.7077 155.197 52.6068 155.171 52.4915C155.145 52.3761 155.125 52.2908 155.109 52.2361C155.026 51.9196 154.95 51.6648 154.883 51.4724C154.815 51.2798 154.702 51.0376 154.542 50.7448C154.382 50.4522 154.193 50.187 153.974 49.9492C153.835 49.7991 153.721 49.6786 153.631 49.5875C153.542 49.4963 153.396 49.3702 153.195 49.2081C152.994 49.0466 152.812 48.9248 152.65 48.8428C152.488 48.761 152.282 48.6894 152.035 48.628C151.788 48.5666 151.546 48.5554 151.309 48.594C151.073 48.6326 150.81 48.7243 150.521 48.8691C150.232 49.0141 149.944 49.2191 149.655 49.4846C149.493 49.6346 149.407 49.8237 149.398 50.0523C149.388 50.2928 149.425 50.5475 149.511 50.8158C149.596 51.0844 149.685 51.3034 149.778 51.4729C149.87 51.6423 150.007 51.8693 150.188 52.1535C150.374 52.4686 150.506 52.6965 150.585 52.8384C150.663 52.9801 150.748 53.1825 150.84 53.4451C150.932 53.708 150.973 53.9474 150.964 54.164C150.948 54.5608 150.978 55.2276 151.054 56.1643C151.117 56.8475 151.15 57.5174 151.153 58.174C151.157 58.8308 151.089 59.2346 150.95 59.3855C150.805 59.5421 150.73 59.7303 150.724 59.95C150.718 60.1696 150.787 60.3577 150.931 60.5141L156.478 66.5314C156.628 66.6941 156.815 66.7786 157.041 66.7847C157.267 66.7911 157.464 66.7223 157.632 66.5786C157.857 66.383 158.478 66.0648 159.496 65.6246C160.128 65.343 160.619 65.1193 160.969 64.9528C161.319 64.7863 161.783 64.5264 162.36 64.174C162.938 63.821 163.433 63.4543 163.846 63.0737L164.006 62.9266L164.719 62.269L165.057 61.9576C165.878 61.1777 166.269 60.3657 166.232 59.5209C166.196 58.7545 165.828 58.0469 165.125 57.3977C165.156 56.9412 165.054 56.4914 164.819 56.0481C164.574 55.5687 164.236 55.2025 163.807 54.9501C163.743 54.303 163.482 53.7503 163.025 53.2921C162.841 53.0909 162.575 52.8963 162.227 52.7075Z" fill="#FCDACB"/>
<path d="M149.185 61.0303L146.482 63.5221C146.319 63.6721 146.233 63.8614 146.223 64.0899C146.214 64.3184 146.284 64.514 146.434 64.6767L151.972 70.6849C152.122 70.8474 152.311 70.9335 152.54 70.9429C152.768 70.952 152.964 70.8817 153.127 70.7317L155.83 68.2399C155.993 68.09 156.079 67.9007 156.088 67.6724C156.097 67.4437 156.027 67.2481 155.877 67.0856L150.34 61.0774C150.19 60.9147 150 60.8287 149.772 60.8194C149.543 60.81 149.348 60.8803 149.185 61.0303ZM153.483 67.8597C153.471 68.085 153.383 68.2726 153.221 68.4226C153.052 68.5784 152.856 68.6518 152.633 68.6427C152.411 68.6336 152.222 68.5446 152.066 68.3756C151.916 68.2129 151.844 68.0187 151.85 67.7931C151.857 67.5675 151.944 67.3768 152.113 67.221C152.276 67.071 152.471 67.0008 152.7 67.0101C152.928 67.0194 153.118 67.1054 153.268 67.2681C153.423 67.4371 153.495 67.6341 153.483 67.8597Z" fill="#FCDACB"/>
</svg>
