<svg width="144" height="44" viewBox="0 0 144 44" fill="none" xmlns="http://www.w3.org/2000/svg">
<path d="M42.672 13.496C42.656 17.32 45.728 19.208 48.624 19.208C49.808 19.208 50.928 18.936 51.872 18.472V16.664C51.136 17.224 50.096 17.528 48.944 17.528C46.8 17.528 44.528 16.248 44.528 13.496C44.544 10.536 46.768 9.272 48.912 9.272C49.968 9.272 51.008 9.56 51.792 10.104V8.328C50.832 7.848 49.728 7.592 48.608 7.592C45.664 7.592 42.672 9.512 42.672 13.496ZM55.1575 19V13.8L57.3335 17.16H58.3575L60.5495 13.8V19H62.1975V11.32H60.4695L57.8455 15.368L55.2375 11.32H53.5095V19H55.1575ZM63.8576 15.16C63.8576 17.816 65.8736 19.208 68.0176 19.208C70.1776 19.208 72.1776 17.816 72.1776 15.16C72.1776 12.504 70.1776 11.112 68.0176 11.112C65.8736 11.112 63.8576 12.504 63.8576 15.16ZM70.4336 15.16C70.4336 16.664 69.4416 17.64 68.0176 17.64C66.5776 17.64 65.5856 16.664 65.5856 15.16C65.5856 13.656 66.5776 12.68 68.0176 12.68C69.4416 12.68 70.4336 13.656 70.4336 15.16ZM77.2025 19V12.824H79.8425V11.32H72.8345V12.824H75.4905V19H77.2025ZM82.7014 12.52V11.32H81.1814V22.52H82.8934V18.008C83.4214 18.616 84.3174 19.208 85.6614 19.208C87.9654 19.208 89.4694 17.368 89.4694 15.16C89.4694 12.952 87.9654 11.112 85.6614 11.112C84.2214 11.112 83.3094 11.784 82.7014 12.52ZM87.7254 15.16C87.7254 16.664 86.7334 17.704 85.3414 17.704C84.1574 17.704 83.2614 16.936 82.8934 16.088V14.216C83.2614 13.384 84.1574 12.616 85.3414 12.616C86.7334 12.616 87.7254 13.656 87.7254 15.16ZM90.6545 15.16C90.6545 17.864 92.6545 19.208 95.0065 19.208C96.0785 19.208 97.0545 19.016 97.7585 18.68V17.208C97.1025 17.528 96.2545 17.752 95.3265 17.752C93.9185 17.752 92.5745 17.176 92.3825 15.8H98.1585C98.6545 13.576 97.5985 11.112 94.5425 11.112C92.7665 11.112 90.6545 12.376 90.6545 15.16ZM96.6225 14.52H92.3665C92.4305 13.224 93.4705 12.536 94.6225 12.536C96.3025 12.536 96.7185 13.848 96.6225 14.52ZM103.312 19V12.824H105.952V11.32H98.9439V12.824H101.6V19H103.312ZM111.099 19C113.035 19 114.139 17.88 114.139 16.44C114.139 14.984 113.035 13.88 111.099 13.88H109.003V11.32H107.291V19H111.099ZM109.003 15.224H110.763C111.771 15.224 112.395 15.64 112.395 16.44C112.395 17.224 111.771 17.64 110.763 17.64H109.003V15.224ZM42.592 31.224C42.592 33.96 44.688 35.208 46.736 35.208C47.712 35.208 48.544 35.032 49.28 34.68V33.096C48.672 33.448 47.856 33.688 47.04 33.688C45.664 33.688 44.336 32.904 44.336 31.16C44.336 29.352 45.712 28.632 47.072 28.632C47.856 28.632 48.64 28.872 49.2 29.272V27.704C48.528 27.304 47.696 27.112 46.832 27.112C44.784 27.112 42.592 28.36 42.592 31.224ZM50.3889 31.16C50.3889 33.864 52.3889 35.208 54.7409 35.208C55.8129 35.208 56.7889 35.016 57.4929 34.68V33.208C56.8369 33.528 55.9889 33.752 55.0609 33.752C53.6529 33.752 52.3089 33.176 52.1169 31.8H57.8929C58.3889 29.576 57.3329 27.112 54.2769 27.112C52.5009 27.112 50.3889 28.376 50.3889 31.16ZM56.3569 30.52H52.1009C52.1649 29.224 53.2049 28.536 54.3569 28.536C56.0369 28.536 56.4529 29.848 56.3569 30.52ZM61.1233 28.52V27.32H59.6033V38.52H61.3153V34.008C61.8433 34.616 62.7393 35.208 64.0833 35.208C66.3873 35.208 67.8913 33.368 67.8913 31.16C67.8913 28.952 66.3873 27.112 64.0833 27.112C62.6432 27.112 61.7313 27.784 61.1233 28.52ZM66.1473 31.16C66.1473 32.664 65.1553 33.704 63.7633 33.704C62.5793 33.704 61.6833 32.936 61.3153 32.088V30.216C61.6833 29.384 62.5793 28.616 63.7633 28.616C65.1553 28.616 66.1473 29.656 66.1473 31.16ZM72.9369 35V28.824H75.5769V27.32H68.5689V28.824H71.2249V35H72.9369ZM78.3878 35L82.4998 29.976V35H84.2118V27.32H82.7398L78.6278 32.344V27.32H76.9158V35H78.3878ZM91.9853 38.52V35.208C94.5293 35.128 96.4493 33.592 96.4493 31.16C96.4493 28.728 94.5293 27.192 91.9853 27.112V23.8H90.3213V27.112C87.7773 27.192 85.8573 28.728 85.8573 31.16C85.8573 33.592 87.7773 35.128 90.3213 35.208V38.52H91.9853ZM87.5693 31.16C87.5693 29.672 88.5933 28.648 90.3213 28.568V33.752C88.5933 33.672 87.5693 32.648 87.5693 31.16ZM91.9853 28.568C93.7133 28.648 94.7373 29.672 94.7373 31.16C94.7373 32.648 93.7133 33.672 91.9853 33.752V28.568ZM99.5753 35L103.687 29.976V35H105.399V27.32H103.927L99.8153 32.344V27.32H98.1033V35H99.5753ZM109.253 35V31.816H110.485L113.013 35H114.981L111.893 31.128L114.677 27.32H112.725L110.517 30.36H109.253V27.32H107.541V35H109.253ZM122.569 33.224V30.472C122.569 28.152 121.193 27.112 119.017 27.112C117.785 27.112 116.681 27.416 116.073 27.624V29.192C116.761 28.888 117.705 28.6 118.841 28.6C120.153 28.6 120.857 29.272 120.857 30.232V30.504C120.249 30.376 119.513 30.28 118.857 30.28C117.257 30.28 115.433 30.888 115.433 32.856C115.433 34.44 116.729 35.208 118.121 35.208C119.321 35.208 120.265 34.824 121.017 34.216C121.289 34.84 121.849 35.112 122.553 35.112C122.937 35.112 123.321 35.048 123.641 34.92V33.688C123.481 33.736 123.305 33.784 123.129 33.784C122.825 33.784 122.569 33.656 122.569 33.224ZM119.193 31.48C119.737 31.48 120.393 31.576 120.857 31.672V32.968C120.249 33.576 119.449 33.88 118.633 33.88C117.865 33.88 117.193 33.496 117.193 32.744C117.193 31.784 118.217 31.48 119.193 31.48ZM128.187 35V28.824H130.827V27.32H123.819V28.824H126.475V35H128.187ZM135.974 35C137.91 35 139.014 33.88 139.014 32.44C139.014 30.984 137.91 29.88 135.974 29.88H133.878V27.32H132.166V35H135.974ZM133.878 31.224H135.638C136.646 31.224 137.27 31.64 137.27 32.44C137.27 33.224 136.646 33.64 135.638 33.64H133.878V31.224ZM142.102 35V27.32H140.39V35H142.102Z" fill="white"/>
<path d="M31.149 40.1119V42.3758C31.149 43.2617 30.4178 44 29.5404 44H1.60863C0.731197 44 0 43.2617 0 42.3758V5.51234C0 4.62644 0.731197 3.88818 1.60863 3.88818H3.85097V38.4877C3.85097 39.3736 4.58217 40.1119 5.45961 40.1119H31.149Z" fill="#576B89"/>
<path d="M27.5903 0H5.4107C4.53326 0 3.80206 0.738255 3.80206 1.62416V38.4876C3.80206 39.3736 4.53326 40.1118 5.4107 40.1118H33.3912C34.2686 40.1118 34.9998 39.3736 34.9998 38.4876V7.48098H29.199C28.3215 7.48098 27.5903 6.74272 27.5903 5.85682V0Z" fill="white"/>
<path d="M27.5906 0V5.85682C27.5906 6.74272 28.3218 7.48098 29.1992 7.48098H35L27.5906 0Z" fill="#C5CFD6"/>
<path d="M32 30H6V32H32V30Z" fill="#C5CFD6"/>
<path d="M20 34H6V36H20V34Z" fill="#C5CFD6"/>
<path d="M32 26H6V28H32V26Z" fill="#C5CFD6"/>
</svg>
