<svg width="23" height="24" viewBox="0 0 23 24" fill="none" xmlns="http://www.w3.org/2000/svg">
<path d="M13.0008 11.7371L21.6889 2.50596C22.2287 1.93293 22.2287 1.00317 21.6889 0.430139C21.1491 -0.14338 20.275 -0.14338 19.7352 0.430139L11.0471 9.66124L2.35855 0.430139C1.81877 -0.14338 0.944619 -0.14338 0.404837 0.430139C-0.134946 1.00317 -0.134946 1.93293 0.404837 2.50596L9.0934 11.7371L0.404837 20.9682C-0.134946 21.5412 -0.134946 22.471 0.404837 23.044C0.674728 23.3303 1.02844 23.4736 1.3817 23.4736C1.73495 23.4736 2.08866 23.3303 2.35855 23.0435L11.0471 13.8124L19.7352 23.0435C20.0051 23.3303 20.3588 23.4736 20.7121 23.4736C21.0653 23.4736 21.419 23.3303 21.6889 23.0435C22.2287 22.4705 22.2287 21.5407 21.6889 20.9677L13.0008 11.7371Z" fill="white"/>
</svg>
