<svg width="13" height="12" viewBox="0 0 13 12" fill="none" xmlns="http://www.w3.org/2000/svg">
<path d="M7.39618 6.00061L11.8376 1.28157C12.1136 0.988626 12.1136 0.513319 11.8376 0.22038C11.5617 -0.072809 11.1148 -0.072809 10.8389 0.22038L6.39741 4.93943L1.95572 0.22038C1.67978 -0.072809 1.2329 -0.072809 0.956957 0.22038C0.681014 0.513319 0.681014 0.988626 0.956957 1.28157L5.39865 6.00061L0.956957 10.7197C0.681014 11.0126 0.681014 11.4879 0.956957 11.7808C1.09493 11.9272 1.27575 12.0005 1.45634 12.0005C1.63693 12.0005 1.81775 11.9272 1.95572 11.7806L6.39741 7.06155L10.8389 11.7806C10.9768 11.9272 11.1577 12.0005 11.3383 12.0005C11.5188 12.0005 11.6997 11.9272 11.8376 11.7806C12.1136 11.4877 12.1136 11.0124 11.8376 10.7194L7.39618 6.00061Z" fill="white"/>
</svg>
