<svg width="1120" height="960" viewBox="0 0 1120 960" fill="none" xmlns="http://www.w3.org/2000/svg">
<circle cx="787" cy="787" r="787" fill="white"/>
<path fill-rule="evenodd" clip-rule="evenodd" d="M944.225 389.334C943.692 388.946 942.426 388.809 941.838 388.692C939.39 388.21 936.869 388 934.374 388C926.681 388.012 918.863 388.767 911.298 390.074C906.494 390.903 900.687 393.696 895.909 392.179C887.585 389.537 879.172 389.667 871.274 393.439C864.053 396.888 858.572 403.439 855.373 410.517C854.89 411.586 852.932 415.519 852.378 418.17C852.141 418.712 851.913 419.257 851.708 419.811C851.126 421.384 850.603 422.984 850.118 424.588C849.91 425.272 849.389 426.782 850.008 427.074C849.019 428.901 848.141 430.783 847.411 432.726C845.286 438.378 842.962 444.578 842.215 450.568C841.939 452.786 841.928 455.017 842.185 457.239C842.312 458.338 842.26 460.546 843.004 461.382C844.585 463.154 845.396 460.673 845.218 459.491C843.858 450.485 846.485 442.027 849.598 433.561C851.612 428.087 854.92 423.078 858.626 418.543C861.625 414.871 864.842 411.98 868.953 409.546C873.981 406.569 879.356 404.163 884.681 401.749C888.184 400.161 891.691 398.615 895.291 397.247C896.092 396.942 897.351 396.161 898.239 396.158C900.116 396.152 902.777 397.537 904.59 398.052C910.554 399.748 916.594 401.919 922.758 402.785C926.712 403.341 930.416 402.715 934.113 401.398C934.491 401.264 935.125 400.918 935.901 400.424C938.646 399.368 941.243 398.039 943.504 396.121C944.807 395.017 945.989 393.589 947.067 392.282C947.389 391.892 947.532 391.444 947.537 391.018C947.781 390.891 947.943 390.741 947.98 390.567C948.249 389.281 945.796 389.258 944.225 389.334Z" fill="#89C5CC"/>
<path fill-rule="evenodd" clip-rule="evenodd" d="M319.273 496.54C317.764 497.763 316.284 499.011 314.84 500.31C313.739 501.3 311.791 502.485 311.396 503.985C310.985 505.543 312.282 507.003 313.306 507.945C318.723 512.929 324.823 516.298 332.329 516.858C343.887 517.721 353.946 514.77 363.974 508.962C371.018 504.883 375.684 498.849 376.703 490.7C385.092 494.187 393.205 498.992 400.1 504.89C403.502 507.801 406.432 511.025 409.142 514.599C410.878 516.888 412.557 519.215 414.115 521.631C414.792 522.68 415.481 524.541 416.599 525.146C417.912 525.856 419.499 524.743 419.434 523.284C419.379 522.069 418.068 520.66 417.454 519.667C416.436 518.018 415.402 516.379 414.313 514.775C412.551 512.179 410.73 509.619 408.744 507.189C404.28 501.73 398.601 497.22 392.714 493.375C381.42 485.997 369.025 481.349 355.283 480.955C346.833 480.713 339.725 483.6 332.499 487.911C328 490.595 323.356 493.235 319.273 496.54Z" fill="#DDE3E9"/>
<path fill-rule="evenodd" clip-rule="evenodd" d="M428.883 460.856C420.078 451.787 411.241 442.832 401.403 434.847C395.605 430.141 389.495 425.863 383.511 421.401C384.201 422.006 384.878 422.628 385.539 423.266C383.671 421.998 381.226 421.281 379.246 420.107C377.037 418.798 374.925 417.301 372.854 415.791C368.811 412.845 364.829 409.843 360.673 407.051C356.043 403.94 351.245 401.066 346.536 398.073C342.539 395.532 338.494 392.751 334.218 390.675C331.888 389.543 329.553 388.201 327.213 387.02C326.43 386.625 318.484 381.608 318.504 381.593C318.943 381.262 322.942 383.141 323.56 383.393C325.366 384.131 327.094 385.014 328.83 385.893C327.877 384.013 327.123 382.038 326.712 379.958C326.585 379.317 325.569 374.644 326.089 374.252C326.348 374.057 328.883 382.416 329.013 383.22C329.119 383.872 329.103 384.813 329.317 385.431C329.662 386.429 329.645 386.128 330.405 386.69C331.798 387.721 333.647 388.365 335.155 389.227C335.968 389.681 338.485 391.48 340.001 391.993C344.588 394.222 349.238 397.649 353.597 400.495C352.453 398.345 351.582 396.097 350.948 393.742C350.797 393.182 349.167 388.165 349.563 387.867C350.008 387.532 353.112 395.195 353.296 395.92C353.637 397.268 353.708 398.768 354.136 400.079C354.605 401.518 356.07 402.028 357.39 402.867C362.247 405.953 366.938 409.232 371.55 412.662C376.583 403.711 370.78 392.903 365.89 385.393C362.364 379.981 357.619 375.34 352.608 371.289C345.92 365.882 338.269 361.563 330.627 357.612C321.723 353.009 312.099 350.157 302.093 348.839C296.86 348.15 291.507 348.169 286.221 348.39C283.639 348.498 281.16 348.84 278.686 349.682C277.57 350.062 276.493 350.541 275.442 351.077C274.644 351.484 272.713 351.915 272.255 352.522C268.477 357.438 266.545 362.337 266.84 368.515C267.119 374.363 268.966 380.214 271.472 385.431C274.264 391.24 277.854 396.512 282.55 400.936C286.132 404.312 290.137 407.251 294.116 410.15C308.267 420.463 326.208 429.433 344.536 427.129C350.469 426.383 356.112 424.308 361.385 421.489C362.628 420.824 363.863 420.152 365.036 419.368C365.827 418.839 367.941 416.456 368.736 416.37C369.827 416.251 372.175 418.469 373.198 419.144C380.972 424.275 388.542 429.685 395.953 435.313C403.839 441.302 411.337 447.697 418.615 454.393C421.71 457.242 424.786 460.096 427.791 463.04C428.491 463.725 430.202 466.247 431.471 466.362C432.273 466.434 432.814 465.749 432.7 465.006C432.501 463.716 429.785 461.784 428.883 460.856Z" fill="#C1DEE2"/>
<path fill-rule="evenodd" clip-rule="evenodd" d="M934.98 425.66C931.57 424.915 927.803 424.972 924.329 425.033C905.695 425.287 887.397 434.109 875.489 448.205C865.351 460.205 862.563 475.125 860.56 490.207C860.362 491.704 860.277 493.192 860.165 494.693C860.141 495.015 860.105 495.302 860.066 495.573C859.279 496.277 858.865 497.098 859.332 498C857.597 501.797 856.129 505.69 854.869 509.706C851.162 521.526 847.392 533.571 849.714 546C850.257 539.16 851.399 532.166 852.764 525.438C852.842 525.052 852.927 524.669 853.015 524.287C853.025 524.247 853.033 524.206 853.042 524.166C853.525 522.106 854.153 520.108 854.917 518.141C854.925 518.119 854.933 518.098 854.941 518.077C855.042 517.818 855.149 517.56 855.255 517.303C855.474 516.77 855.699 516.238 855.937 515.708C856.018 515.528 856.095 515.346 856.17 515.163C857.282 512.437 857.751 509.365 858.748 506.545C858.986 505.904 859.235 505.265 859.496 504.629C859.512 504.592 859.527 504.555 859.543 504.518C860.249 502.807 861.028 501.118 861.853 499.446C862.301 499.109 862.54 498.274 862.927 497.515C863.006 497.365 863.631 496.368 863.817 495.793C864.303 494.854 864.786 493.915 865.275 492.977C865.26 492.983 865.246 492.988 865.231 492.994C865.72 492.093 866.211 491.197 866.698 490.304C866.805 490.108 866.913 489.912 867.021 489.715C867.196 489.402 867.371 489.089 867.545 488.777C869.177 485.856 870.908 482.994 872.705 480.167C873.347 479.158 874.879 477.711 875.173 476.579C875.184 476.536 875.186 476.497 875.193 476.457C879.093 470.979 883.582 465.927 888.966 461.924C888.316 462.628 886.932 465.015 886.567 465.488C885.447 466.935 884.232 468.282 883.013 469.646C880.828 472.089 878.696 474.609 876.801 477.274C873.335 482.148 870.346 487.277 867.519 492.51C867.493 492.54 867.463 492.569 867.438 492.601C866.017 494.352 865.123 496.998 864.101 499.001C868.147 497.127 872.622 495.906 876.774 494.242C880.916 492.583 884.945 490.735 888.834 488.566C894.003 485.682 899.366 482.427 904.25 478.743C909.848 475.271 914.551 470.492 918.703 465.477C923.615 459.543 928.117 453.558 930.901 446.353C932.269 442.813 933.345 439.121 933.983 435.386C934.011 435.224 934.046 435.047 934.085 434.864C934.738 433.574 935.321 432.255 935.811 430.906C936.588 428.766 938.425 426.412 934.98 425.66Z" fill="#69A1AC"/>
<path fill-rule="evenodd" clip-rule="evenodd" d="M357.008 450.729C355.94 449.572 354.74 448.528 353.331 447.783C352.974 447.595 350.321 446.335 350.148 446.611C349.745 447.255 356.687 450.359 357.008 450.729ZM369.59 443C369.581 443.049 370.501 444.61 370.752 445.09C371.285 446.111 371.777 447.151 372.24 448.194C371.555 446.353 370.85 444.645 369.59 443ZM305.245 455.709C304.359 455.994 303.293 454.869 304.443 454.592C305.373 454.37 305.327 454.318 305.745 453.568C306.084 452.96 306.293 452.218 306.591 451.58C307.222 450.226 307.938 448.934 308.817 447.724C310.7 445.13 312.995 442.895 315.569 441.011C320.061 437.725 325.098 434.72 330.441 433.211C338.936 430.811 348.605 430.663 357.113 432.327C362.383 433.357 367.198 435.149 370.697 439.392C372.446 441.512 373.819 443.996 374.419 446.731C374.576 447.446 374.546 448.241 374.742 448.941C375.044 450.018 374.911 449.731 376.17 449.94C377.544 450.169 378.917 450.402 380.29 450.64C383.885 451.262 387.501 451.922 391.004 452.931C392.157 453.263 393.284 453.669 394.386 454.14C395.219 454.496 398.536 455.615 398.939 456.697C399.61 458.498 397.362 457.682 396.663 457.289C396.051 456.946 395.423 456.625 394.786 456.33C393.181 455.588 391.509 455.013 389.799 454.556C387.951 454.062 386.066 453.693 384.187 453.323C382.436 452.979 380.678 452.666 378.917 452.366C377.939 452.2 376.961 452.038 375.982 451.877C375.647 451.821 375.058 451.532 375.102 451.967C373.044 451.57 370.819 451.627 368.723 451.518C366.156 451.384 363.579 451.274 361.003 451.354C359.145 451.412 357.286 451.534 355.437 451.784C354.357 451.93 353.294 452.143 352.234 452.413C351.652 452.562 349.357 452.877 349.04 453.384C349.176 453.166 351.709 453.378 352.032 453.365C353.322 453.317 354.601 453.189 355.886 453.046C358.271 452.779 360.656 452.64 363.048 452.66C363.039 453.08 361.405 453.828 361.006 454.106C360.112 454.731 359.255 455.411 358.456 456.158C357.049 457.473 355.363 459.102 354.39 460.661C354.677 460.201 356.092 459.604 356.594 459.253C357.399 458.691 358.188 458.091 358.934 457.45C359.622 456.858 360.265 456.218 360.897 455.565C361.529 454.912 362.386 453.553 363.217 453.118C363.267 453.091 363.629 453.377 363.834 453.28C364.042 453.182 364.3 452.692 364.353 452.672C365.125 452.374 366.593 452.745 367.406 452.783C369.513 452.88 371.619 453.007 373.724 453.123C374.377 453.159 374.931 453.01 375.178 453.491C375.44 454.005 374.959 455.354 374.822 455.913C374.314 457.989 373.413 459.85 371.993 461.459C369.335 464.472 366.056 466.48 362.353 467.824C348.169 472.97 333.078 475.031 318.898 469.678C313.028 467.461 304.186 463.501 305.245 455.709Z" fill="#89C5CC"/>
<g opacity="0.6">
<path opacity="0.6" fill-rule="evenodd" clip-rule="evenodd" d="M954.711 698.152C964.361 763.476 730.337 806.085 528.908 776.349C327.478 746.614 235.072 630.493 331.191 568.62C427.31 506.746 945.061 632.828 954.711 698.152Z" fill="#FDF1EC"/>
</g>
<path d="M543 270H400C395.582 270 392 273.582 392 278V564C392 568.418 395.582 572 400 572H543C547.418 572 551 568.418 551 564V278C551 273.582 547.418 270 543 270Z" fill="#F2F2F2"/>
<path d="M471 553C479.284 553 486 546.284 486 538C486 529.716 479.284 523 471 523C462.716 523 456 529.716 456 538C456 546.284 462.716 553 471 553Z" fill="white"/>
<path d="M458 290C459.105 290 460 289.105 460 288C460 286.895 459.105 286 458 286C456.895 286 456 286.895 456 288C456 289.105 456.895 290 458 290Z" fill="white"/>
<path d="M484 286H467C465.895 286 465 286.895 465 288C465 289.105 465.895 290 467 290H484C485.105 290 486 289.105 486 288C486 286.895 485.105 286 484 286Z" fill="white"/>
<path d="M533 298H410C407.791 298 406 299.791 406 302V348C406 350.209 407.791 352 410 352H533C535.209 352 537 350.209 537 348V302C537 299.791 535.209 298 533 298Z" fill="white"/>
<path d="M515 314.2H448C446.343 314.2 445 315.543 445 317.2V319.3C445 320.957 446.343 322.3 448 322.3H515C516.657 322.3 518 320.957 518 319.3V317.2C518 315.543 516.657 314.2 515 314.2Z" fill="#DDE3E9"/>
<path d="M491 327.7H448C446.343 327.7 445 329.043 445 330.7V332.8C445 334.457 446.343 335.8 448 335.8H491C492.657 335.8 494 334.457 494 332.8V330.7C494 329.043 492.657 327.7 491 327.7Z" fill="#DDE3E9"/>
<path d="M427 337C433.627 337 439 331.627 439 325C439 318.373 433.627 313 427 313C420.373 313 415 318.373 415 325C415 331.627 420.373 337 427 337Z" fill="#C5CFD6"/>
<path d="M533 360H410C407.791 360 406 361.791 406 364V398C406 400.209 407.791 402 410 402H533C535.209 402 537 400.209 537 398V364C537 361.791 535.209 360 533 360Z" fill="white"/>
<path d="M515 372.6H448C446.343 372.6 445 373.943 445 375.6V375.9C445 377.557 446.343 378.9 448 378.9H515C516.657 378.9 518 377.557 518 375.9V375.6C518 373.943 516.657 372.6 515 372.6Z" fill="#DDE3E9"/>
<path d="M491 383.1H448C446.343 383.1 445 384.443 445 386.1V386.4C445 388.057 446.343 389.4 448 389.4H491C492.657 389.4 494 388.057 494 386.4V386.1C494 384.443 492.657 383.1 491 383.1Z" fill="#DDE3E9"/>
<path d="M427 393C433.627 393 439 387.627 439 381C439 374.373 433.627 369 427 369C420.373 369 415 374.373 415 381C415 387.627 420.373 393 427 393Z" fill="#C5CFD6"/>
<path d="M533 410H410C407.791 410 406 411.791 406 414V448C406 450.209 407.791 452 410 452H533C535.209 452 537 450.209 537 448V414C537 411.791 535.209 410 533 410Z" fill="white"/>
<path d="M515 422.6H448C446.343 422.6 445 423.943 445 425.6V425.9C445 427.557 446.343 428.9 448 428.9H515C516.657 428.9 518 427.557 518 425.9V425.6C518 423.943 516.657 422.6 515 422.6Z" fill="#DDE3E9"/>
<path d="M491 433.1H448C446.343 433.1 445 434.443 445 436.1V436.4C445 438.057 446.343 439.4 448 439.4H491C492.657 439.4 494 438.057 494 436.4V436.1C494 434.443 492.657 433.1 491 433.1Z" fill="#DDE3E9"/>
<path d="M427 443C433.627 443 439 437.627 439 431C439 424.373 433.627 419 427 419C420.373 419 415 424.373 415 431C415 437.627 420.373 443 427 443Z" fill="#AFB9C5"/>
<path d="M533 460H410C407.791 460 406 461.791 406 464V498C406 500.209 407.791 502 410 502H533C535.209 502 537 500.209 537 498V464C537 461.791 535.209 460 533 460Z" fill="white"/>
<path d="M515 472.6H448C446.343 472.6 445 473.943 445 475.6V475.9C445 477.557 446.343 478.9 448 478.9H515C516.657 478.9 518 477.557 518 475.9V475.6C518 473.943 516.657 472.6 515 472.6Z" fill="#DDE3E9"/>
<path d="M491 483.1H448C446.343 483.1 445 484.443 445 486.1V486.4C445 488.057 446.343 489.4 448 489.4H491C492.657 489.4 494 488.057 494 486.4V486.1C494 484.443 492.657 483.1 491 483.1Z" fill="#DDE3E9"/>
<path d="M427 493C433.627 493 439 487.627 439 481C439 474.373 433.627 469 427 469C420.373 469 415 474.373 415 481C415 487.627 420.373 493 427 493Z" fill="#C5CFD6"/>
<path fill-rule="evenodd" clip-rule="evenodd" d="M422.14 514C420.815 514 419.494 514.027 418.171 514.095C417.162 514.148 415.621 513.939 414.768 514.568C413.881 515.221 413.942 516.557 414.081 517.501C414.813 522.493 416.6 526.919 420.339 530.456C426.096 535.901 432.695 538.668 440.504 539.9C445.99 540.766 451.054 539.564 455.092 535.663C458.043 541.139 460.281 547.199 461.404 553.315C461.958 556.333 462.127 559.315 462.03 562.388C461.967 564.356 461.859 566.32 461.648 568.279C461.556 569.13 461.122 570.418 461.455 571.223C461.846 572.167 463.165 572.259 463.757 571.453C464.25 570.783 464.16 569.466 464.261 568.673C464.429 567.355 464.584 566.036 464.695 564.712C464.876 562.569 465.009 560.42 465 558.268C464.977 553.435 463.902 548.583 462.432 543.995C459.612 535.192 455.037 527.369 447.921 521.231C443.545 517.457 438.537 515.929 432.856 515.108C429.318 514.597 425.723 514 422.14 514Z" fill="#89C5CC"/>
<path fill-rule="evenodd" clip-rule="evenodd" d="M442.571 549C428.272 549 418.642 560.524 414.089 572.502C412.372 577.016 411.97 581.974 411.308 586.714C411.096 588.236 411.175 590.554 410.557 591.909C410.333 592.401 409.819 592.577 410.065 593.247C410.214 593.652 410.505 593.901 410.944 593.981C411.843 594.147 413.115 593.167 413.886 592.781C420.282 589.573 424.484 584.613 427.912 578.545C430.038 574.784 432.194 570.879 433.456 566.75C434.227 564.227 434.676 561.571 434.94 558.954C435.044 557.923 435.144 556.868 435.138 555.832C435.132 554.803 434.653 554.259 434.309 553.364C439.08 551.558 444.466 551.066 449.299 552.937C453.769 554.668 457.482 558.013 459.561 562.216C460.101 563.308 460.518 564.46 460.821 565.636C461.02 566.406 461.029 567.404 461.398 568.1C462.29 569.788 464.168 568.66 463.988 567.089C463.485 562.708 460.979 558.309 457.775 555.263C453.734 551.421 448.258 549 442.571 549Z" fill="#89C5CC"/>
<path d="M609 296H466C461.582 296 458 299.582 458 304V590C458 594.418 461.582 598 466 598H609C613.418 598 617 594.418 617 590V304C617 299.582 613.418 296 609 296Z" fill="#DDE3E9"/>
<path d="M537 579C545.284 579 552 572.284 552 564C552 555.716 545.284 549 537 549C528.716 549 522 555.716 522 564C522 572.284 528.716 579 537 579Z" fill="white"/>
<path d="M524 316C525.105 316 526 315.105 526 314C526 312.895 525.105 312 524 312C522.895 312 522 312.895 522 314C522 315.105 522.895 316 524 316Z" fill="white"/>
<path d="M550 312H533C531.895 312 531 312.895 531 314C531 315.105 531.895 316 533 316H550C551.105 316 552 315.105 552 314C552 312.895 551.105 312 550 312Z" fill="white"/>
<path d="M599 324H476C473.791 324 472 325.791 472 328V374C472 376.209 473.791 378 476 378H599C601.209 378 603 376.209 603 374V328C603 325.791 601.209 324 599 324Z" fill="white"/>
<path d="M551 340.2H484C482.343 340.2 481 341.543 481 343.2V345.3C481 346.957 482.343 348.3 484 348.3H551C552.657 348.3 554 346.957 554 345.3V343.2C554 341.543 552.657 340.2 551 340.2Z" fill="#DDE3E9"/>
<path d="M527 353.7H484C482.343 353.7 481 355.043 481 356.7V358.8C481 360.457 482.343 361.8 484 361.8H527C528.657 361.8 530 360.457 530 358.8V356.7C530 355.043 528.657 353.7 527 353.7Z" fill="#DDE3E9"/>
<path d="M589 358C592.866 358 596 354.866 596 351C596 347.134 592.866 344 589 344C585.134 344 582 347.134 582 351C582 354.866 585.134 358 589 358Z" fill="#DDE3E9"/>
<path d="M589 354C590.657 354 592 352.657 592 351C592 349.343 590.657 348 589 348C587.343 348 586 349.343 586 351C586 352.657 587.343 354 589 354Z" fill="#F2F2F2"/>
<path d="M599 386H476C473.791 386 472 387.791 472 390V424C472 426.209 473.791 428 476 428H599C601.209 428 603 426.209 603 424V390C603 387.791 601.209 386 599 386Z" fill="white"/>
<path d="M581 398.6H514C512.343 398.6 511 399.943 511 401.6V401.9C511 403.557 512.343 404.9 514 404.9H581C582.657 404.9 584 403.557 584 401.9V401.6C584 399.943 582.657 398.6 581 398.6Z" fill="#DDE3E9"/>
<path d="M557 409.1H514C512.343 409.1 511 410.443 511 412.1V412.4C511 414.057 512.343 415.4 514 415.4H557C558.657 415.4 560 414.057 560 412.4V412.1C560 410.443 558.657 409.1 557 409.1Z" fill="#DDE3E9"/>
<path d="M493 419C499.627 419 505 413.627 505 407C505 400.373 499.627 395 493 395C486.373 395 481 400.373 481 407C481 413.627 486.373 419 493 419Z" fill="#C5CFD6"/>
<path d="M599 436H476C473.791 436 472 437.791 472 440V474C472 476.209 473.791 478 476 478H599C601.209 478 603 476.209 603 474V440C603 437.791 601.209 436 599 436Z" fill="white"/>
<path d="M551 448.6H484C482.343 448.6 481 449.943 481 451.6V451.9C481 453.557 482.343 454.9 484 454.9H551C552.657 454.9 554 453.557 554 451.9V451.6C554 449.943 552.657 448.6 551 448.6Z" fill="#DDE3E9"/>
<path d="M527 459.1H484C482.343 459.1 481 460.443 481 462.1V462.4C481 464.057 482.343 465.4 484 465.4H527C528.657 465.4 530 464.057 530 462.4V462.1C530 460.443 528.657 459.1 527 459.1Z" fill="#AFB9C5"/>
<path d="M589 464C592.866 464 596 460.866 596 457C596 453.134 592.866 450 589 450C585.134 450 582 453.134 582 457C582 460.866 585.134 464 589 464Z" fill="#DDE3E9"/>
<path d="M589 460C590.657 460 592 458.657 592 457C592 455.343 590.657 454 589 454C587.343 454 586 455.343 586 457C586 458.657 587.343 460 589 460Z" fill="#F2F2F2"/>
<path d="M599 486H476C473.791 486 472 487.791 472 490V524C472 526.209 473.791 528 476 528H599C601.209 528 603 526.209 603 524V490C603 487.791 601.209 486 599 486Z" fill="white"/>
<path d="M581 498.6H514C512.343 498.6 511 499.943 511 501.6V501.9C511 503.557 512.343 504.9 514 504.9H581C582.657 504.9 584 503.557 584 501.9V501.6C584 499.943 582.657 498.6 581 498.6Z" fill="#DDE3E9"/>
<path d="M557 509.1H514C512.343 509.1 511 510.443 511 512.1V512.4C511 514.057 512.343 515.4 514 515.4H557C558.657 515.4 560 514.057 560 512.4V512.1C560 510.443 558.657 509.1 557 509.1Z" fill="#DDE3E9"/>
<path d="M493 519C499.627 519 505 513.627 505 507C505 500.373 499.627 495 493 495C486.373 495 481 500.373 481 507C481 513.627 486.373 519 493 519Z" fill="#C5CFD6"/>
<path d="M851 321H532C527.582 321 524 324.582 524 329V659C524 663.418 527.582 667 532 667H851C855.418 667 859 663.418 859 659V329C859 324.582 855.418 321 851 321Z" fill="#F2F2F2"/>
<path d="M835 364H781C776.582 364 773 367.582 773 372V437C773 441.418 776.582 445 781 445H835C839.418 445 843 441.418 843 437V372C843 367.582 839.418 364 835 364Z" fill="white"/>
<path d="M808 411C816.837 411 824 403.837 824 395C824 386.163 816.837 379 808 379C799.163 379 792 386.163 792 395C792 403.837 799.163 411 808 411Z" fill="#DDE3E9"/>
<path d="M830 415H786C784.343 415 783 416.343 783 418C783 419.657 784.343 421 786 421H830C831.657 421 833 419.657 833 418C833 416.343 831.657 415 830 415Z" fill="#DDE3E9"/>
<path d="M822 425H794C792.343 425 791 426.343 791 428C791 429.657 792.343 431 794 431H822C823.657 431 825 429.657 825 428C825 426.343 823.657 425 822 425Z" fill="#DDE3E9"/>
<path fill-rule="evenodd" clip-rule="evenodd" d="M532 321H851C855.418 321 859 324.582 859 329V348H524V329C524 324.582 527.582 321 532 321Z" fill="#C5CFD6"/>
<path d="M537 339C539.209 339 541 337.209 541 335C541 332.791 539.209 331 537 331C534.791 331 533 332.791 533 335C533 337.209 534.791 339 537 339Z" fill="#F2F2F2"/>
<path d="M549 339C551.209 339 553 337.209 553 335C553 332.791 551.209 331 549 331C546.791 331 545 332.791 545 335C545 337.209 546.791 339 549 339Z" fill="#F2F2F2"/>
<path d="M561 339C563.209 339 565 337.209 565 335C565 332.791 563.209 331 561 331C558.791 331 557 332.791 557 335C557 337.209 558.791 339 561 339Z" fill="#F2F2F2"/>
<path d="M835 453H781C776.582 453 773 456.582 773 461V639C773 643.418 776.582 647 781 647H835C839.418 647 843 643.418 843 639V461C843 456.582 839.418 453 835 453Z" fill="white"/>
<path d="M821 471H795C792.791 471 791 472.791 791 475V493C791 495.209 792.791 497 795 497H821C823.209 497 825 495.209 825 493V475C825 472.791 823.209 471 821 471Z" fill="#DDE3E9"/>
<path d="M821 505H795C792.791 505 791 506.791 791 509V526C791 528.209 792.791 530 795 530H821C823.209 530 825 528.209 825 526V509C825 506.791 823.209 505 821 505Z" fill="#AFB9C5"/>
<path d="M821 538H795C792.791 538 791 539.791 791 542V559C791 561.209 792.791 563 795 563H821C823.209 563 825 561.209 825 559V542C825 539.791 823.209 538 821 538Z" fill="#DDE3E9"/>
<path d="M821 604H795C792.791 604 791 605.791 791 608V625C791 627.209 792.791 629 795 629H821C823.209 629 825 627.209 825 625V608C825 605.791 823.209 604 821 604Z" fill="#DDE3E9"/>
<path d="M821 571H795C792.791 571 791 572.791 791 575V592C791 594.209 792.791 596 795 596H821C823.209 596 825 594.209 825 592V575C825 572.791 823.209 571 821 571Z" fill="#C5CFD6"/>
<path d="M761 365H544C541.791 365 540 366.791 540 369V408C540 410.209 541.791 412 544 412H761C763.209 412 765 410.209 765 408V369C765 366.791 763.209 365 761 365Z" fill="white"/>
<path d="M713 379.1H552C550.343 379.1 549 380.443 549 382.1V383.15C549 384.807 550.343 386.15 552 386.15H713C714.657 386.15 716 384.807 716 383.15V382.1C716 380.443 714.657 379.1 713 379.1Z" fill="#DDE3E9"/>
<path d="M658.096 390.85H552C550.343 390.85 549 392.193 549 393.85V394.9C549 396.557 550.343 397.9 552 397.9H658.096C659.753 397.9 661.096 396.557 661.096 394.9V393.85C661.096 392.193 659.753 390.85 658.096 390.85Z" fill="#DDE3E9"/>
<path d="M740.954 395.5C744.82 395.5 747.954 392.366 747.954 388.5C747.954 384.634 744.82 381.5 740.954 381.5C737.088 381.5 733.954 384.634 733.954 388.5C733.954 392.366 737.088 395.5 740.954 395.5Z" fill="#DDE3E9"/>
<path d="M740.954 391.5C742.611 391.5 743.954 390.157 743.954 388.5C743.954 386.843 742.611 385.5 740.954 385.5C739.297 385.5 737.954 386.843 737.954 388.5C737.954 390.157 739.297 391.5 740.954 391.5Z" fill="#F2F2F2"/>
<path d="M761 420H544C541.791 420 540 421.791 540 424V455C540 457.209 541.791 459 544 459H761C763.209 459 765 457.209 765 455V424C765 421.791 763.209 420 761 420Z" fill="white"/>
<path d="M713.075 431.7H551.925C550.31 431.7 549 433.01 549 434.625C549 436.241 550.31 437.55 551.925 437.55H713.075C714.69 437.55 716 436.241 716 434.625C716 433.01 714.69 431.7 713.075 431.7Z" fill="#DDE3E9"/>
<path d="M658.171 441.45H551.925C550.31 441.45 549 442.76 549 444.375C549 445.991 550.31 447.3 551.925 447.3H658.171C659.786 447.3 661.096 445.991 661.096 444.375C661.096 442.76 659.786 441.45 658.171 441.45Z" fill="#DDE3E9"/>
<path d="M740.954 446.5C744.82 446.5 747.954 443.366 747.954 439.5C747.954 435.634 744.82 432.5 740.954 432.5C737.088 432.5 733.954 435.634 733.954 439.5C733.954 443.366 737.088 446.5 740.954 446.5Z" fill="#DDE3E9"/>
<path d="M740.954 442.5C742.611 442.5 743.954 441.157 743.954 439.5C743.954 437.843 742.611 436.5 740.954 436.5C739.297 436.5 737.954 437.843 737.954 439.5C737.954 441.157 739.297 442.5 740.954 442.5Z" fill="#F2F2F2"/>
<path d="M761 467H544C541.791 467 540 468.791 540 471V502C540 504.209 541.791 506 544 506H761C763.209 506 765 504.209 765 502V471C765 468.791 763.209 467 761 467Z" fill="white"/>
<path d="M713.075 478.7H551.925C550.31 478.7 549 480.01 549 481.625C549 483.241 550.31 484.55 551.925 484.55H713.075C714.69 484.55 716 483.241 716 481.625C716 480.01 714.69 478.7 713.075 478.7Z" fill="#DDE3E9"/>
<path d="M658.171 488.45H551.925C550.31 488.45 549 489.76 549 491.375C549 492.991 550.31 494.3 551.925 494.3H658.171C659.786 494.3 661.096 492.991 661.096 491.375C661.096 489.76 659.786 488.45 658.171 488.45Z" fill="#DDE3E9"/>
<path d="M740.954 493.5C744.82 493.5 747.954 490.366 747.954 486.5C747.954 482.634 744.82 479.5 740.954 479.5C737.088 479.5 733.954 482.634 733.954 486.5C733.954 490.366 737.088 493.5 740.954 493.5Z" fill="#DDE3E9"/>
<path d="M740.954 489.5C742.611 489.5 743.954 488.157 743.954 486.5C743.954 484.843 742.611 483.5 740.954 483.5C739.297 483.5 737.954 484.843 737.954 486.5C737.954 488.157 739.297 489.5 740.954 489.5Z" fill="#AFB9C5"/>
<path d="M761 608H544C541.791 608 540 609.791 540 612V643C540 645.209 541.791 647 544 647H761C763.209 647 765 645.209 765 643V612C765 609.791 763.209 608 761 608Z" fill="white"/>
<path d="M713.075 619.7H551.925C550.31 619.7 549 621.01 549 622.625C549 624.241 550.31 625.55 551.925 625.55H713.075C714.69 625.55 716 624.241 716 622.625C716 621.01 714.69 619.7 713.075 619.7Z" fill="#DDE3E9"/>
<path d="M658.171 629.45H551.925C550.31 629.45 549 630.76 549 632.375C549 633.991 550.31 635.3 551.925 635.3H658.171C659.786 635.3 661.096 633.991 661.096 632.375C661.096 630.76 659.786 629.45 658.171 629.45Z" fill="#DDE3E9"/>
<path d="M740.954 634.5C744.82 634.5 747.954 631.366 747.954 627.5C747.954 623.634 744.82 620.5 740.954 620.5C737.088 620.5 733.954 623.634 733.954 627.5C733.954 631.366 737.088 634.5 740.954 634.5Z" fill="#DDE3E9"/>
<path d="M740.954 630.5C742.611 630.5 743.954 629.157 743.954 627.5C743.954 625.843 742.611 624.5 740.954 624.5C739.297 624.5 737.954 625.843 737.954 627.5C737.954 629.157 739.297 630.5 740.954 630.5Z" fill="#F2F2F2"/>
<path d="M761 561H544C541.791 561 540 562.791 540 565V596C540 598.209 541.791 600 544 600H761C763.209 600 765 598.209 765 596V565C765 562.791 763.209 561 761 561Z" fill="white"/>
<path d="M713.075 572.7H551.925C550.31 572.7 549 574.01 549 575.625C549 577.241 550.31 578.55 551.925 578.55H713.075C714.69 578.55 716 577.241 716 575.625C716 574.01 714.69 572.7 713.075 572.7Z" fill="#DDE3E9"/>
<path d="M658.171 582.45H551.925C550.31 582.45 549 583.76 549 585.375C549 586.991 550.31 588.3 551.925 588.3H658.171C659.786 588.3 661.096 586.991 661.096 585.375C661.096 583.76 659.786 582.45 658.171 582.45Z" fill="#DDE3E9"/>
<path d="M740.954 587.5C744.82 587.5 747.954 584.366 747.954 580.5C747.954 576.634 744.82 573.5 740.954 573.5C737.088 573.5 733.954 576.634 733.954 580.5C733.954 584.366 737.088 587.5 740.954 587.5Z" fill="#DDE3E9"/>
<path d="M740.954 583.5C742.611 583.5 743.954 582.157 743.954 580.5C743.954 578.843 742.611 577.5 740.954 577.5C739.297 577.5 737.954 578.843 737.954 580.5C737.954 582.157 739.297 583.5 740.954 583.5Z" fill="#F2F2F2"/>
<path d="M761 514H544C541.791 514 540 515.791 540 518V549C540 551.209 541.791 553 544 553H761C763.209 553 765 551.209 765 549V518C765 515.791 763.209 514 761 514Z" fill="white"/>
<path d="M713.075 525.7H551.925C550.31 525.7 549 527.01 549 528.625C549 530.241 550.31 531.55 551.925 531.55H713.075C714.69 531.55 716 530.241 716 528.625C716 527.01 714.69 525.7 713.075 525.7Z" fill="#DDE3E9"/>
<path d="M658.171 535.45H551.925C550.31 535.45 549 536.76 549 538.375C549 539.991 550.31 541.3 551.925 541.3H658.171C659.786 541.3 661.096 539.991 661.096 538.375C661.096 536.76 659.786 535.45 658.171 535.45Z" fill="#DDE3E9"/>
<path d="M740.954 540.5C744.82 540.5 747.954 537.366 747.954 533.5C747.954 529.634 744.82 526.5 740.954 526.5C737.088 526.5 733.954 529.634 733.954 533.5C733.954 537.366 737.088 540.5 740.954 540.5Z" fill="#DDE3E9"/>
<path d="M740.954 536.5C742.611 536.5 743.954 535.157 743.954 533.5C743.954 531.843 742.611 530.5 740.954 530.5C739.297 530.5 737.954 531.843 737.954 533.5C737.954 535.157 739.297 536.5 740.954 536.5Z" fill="#F2F2F2"/>
<path fill-rule="evenodd" clip-rule="evenodd" d="M941.986 491.376C938.041 488.701 932.796 488 928.076 488C909.64 488 892.311 494.84 877.341 505.032C869.138 510.616 861.8 517.728 855.322 525.132C851.582 529.407 848.248 534.03 845.887 539.173C844.294 542.644 843.201 546.261 842.46 549.991C841.557 554.537 840.839 559.175 840.515 563.797C840.387 565.617 839.33 575.274 842.356 575.438C842.338 575.676 842.334 575.903 842.353 576.106C835.782 586.38 831.723 598.42 827.958 609.835C824.683 619.769 821.764 629.786 819.87 640.063C817.375 653.593 815.737 667.326 814.958 681.05C814.791 683.999 814.676 686.95 814.577 689.903C814.493 692.422 814.408 694.941 814.325 697.461C814.233 700.284 813.736 703.534 814.185 706.34C814.576 708.784 816.691 708.414 816.785 705.982C816.898 703.045 816.879 700.102 817.008 697.163C817.179 693.262 817.355 689.361 817.546 685.461C818.875 658.369 823.86 631.675 833.061 606.084C836.785 595.728 841.051 585.925 846.535 576.345C851.356 567.922 857.156 559.767 863.084 552.173C868.845 544.792 874.836 537.583 881.895 531.33C887.624 526.256 893.926 521.835 900.404 517.722C908.631 512.498 916.843 507.401 925.755 503.391C930.388 501.307 935.108 499.441 939.777 497.44C940.617 497.081 941.517 496.732 942.325 496.315C945.02 494.925 944.133 492.832 941.986 491.376Z" fill="#C1DEE2"/>
<path fill-rule="evenodd" clip-rule="evenodd" d="M867.818 586C875.295 586 881.949 586.972 888.838 589.943C894.785 592.508 900.205 595.903 905.467 599.599C912.868 604.798 918.698 610.848 922.779 618.865C925.217 623.654 927.006 630.431 925.368 635.655C923.44 641.807 918.144 646.939 911.169 645.855C906.856 645.185 902.903 642.33 899.625 639.643C895.703 636.428 892.564 632.563 889.972 628.27C885.744 621.267 883.26 613.351 879.668 606.033C877.964 602.56 876.317 599.063 874.275 595.762C873.265 594.128 872.189 592.509 870.656 591.294C869.836 590.644 866.377 589.52 867.7 588.061C848.31 588.315 831.132 603.207 827.409 621.641C827.063 623.359 826.792 625.091 826.505 626.82C826.325 627.911 826.398 631.937 825.422 632.634C823.27 634.172 824.174 629.499 824.267 628.826C824.505 627.087 824.76 625.35 825.027 623.615C826.481 614.181 830.681 605.411 837.685 598.683C845.694 590.99 856.501 586 867.818 586Z" fill="#89C5CC"/>
<path fill-rule="evenodd" clip-rule="evenodd" d="M328.938 562.736C347.604 594.052 369.345 624.374 382.401 658.613C381.875 654.577 381.317 650.545 380.692 646.52C377.38 625.179 373.262 603.994 368.936 582.835C366.733 572.062 364.402 561.327 362.012 550.594C360.727 544.829 359.457 539.061 358.145 533.302C357.827 531.906 357.554 529.469 357.157 527C369.845 568.637 382.081 610.305 391.031 652.942C392.205 658.538 393.205 664.124 394.024 669.7C394.304 668.428 394.58 667.156 394.881 665.887C398.503 650.68 403.935 635.594 410.403 621.374C413.495 614.575 417.046 607.924 421.228 601.726C423.836 597.863 429.986 593.271 432.364 589.314C419.355 613.176 414.657 643.032 407.145 668.973C405.312 675.304 403.467 681.624 401.659 687.955C412.987 665.237 430.563 646.571 455 638.483C425.42 658.027 407.678 692.254 395.722 727.26C395.683 727.675 395.636 728.09 395.595 728.506C399.114 721.829 403.545 715.789 409.551 711.56C422.407 702.504 436.667 705.142 449.137 712.91C439.35 706.689 421.663 712.354 413.428 718.677C407.533 723.203 402.495 729.275 398.12 735.2C397.072 736.62 395.641 738.277 394.13 740.044C392.012 753.795 388.56 767.452 383.672 781C384.479 777.111 383.896 770.892 384.12 767.993C384.144 767.679 384.164 767.365 384.188 767.053C383.445 770.019 382.727 772.951 382.036 775.837C383.41 770.331 384.156 764.583 384.739 758.776C384.889 756.281 385.036 753.785 385.19 751.29C385.141 746.553 384.946 741.799 384.616 737.036C383.447 732.408 382.137 728.042 381.056 724.411C377.159 711.31 371.444 698.76 364.411 687.051C357.994 676.366 350.312 666.688 341.445 657.935C336.664 653.217 331.661 648.725 326.729 644.17C324.945 642.523 321.757 638.474 319 636.363C339.08 647.434 359.749 659.41 374.398 677.248C372.68 670.653 370.815 664.151 368.842 657.78C358.831 625.454 346.191 591.953 328.938 562.736Z" fill="#DDE3E9"/>
<path fill-rule="evenodd" clip-rule="evenodd" d="M349 740C349 775.899 351.843 805 390 805C428.157 805 431 775.899 431 740" fill="#C5CFD6"/>
<path d="M780 281C780 279.343 778.657 278 777 278C775.343 278 774 279.343 774 281V300C774 301.657 775.343 303 777 303C778.657 303 780 301.657 780 300V281Z" fill="#DDE3E9"/>
<path d="M794 265C794 263.343 792.657 262 791 262C789.343 262 788 263.343 788 265V300C788 301.657 789.343 303 791 303C792.657 303 794 301.657 794 300V265Z" fill="#DDE3E9"/>
<path d="M808 257C808 255.343 806.657 254 805 254C803.343 254 802 255.343 802 257V300C802 301.657 803.343 303 805 303C806.657 303 808 301.657 808 300V257Z" fill="#DDE3E9"/>
<path d="M822 265C822 263.343 820.657 262 819 262C817.343 262 816 263.343 816 265V300C816 301.657 817.343 303 819 303C820.657 303 822 301.657 822 300V265Z" fill="#DDE3E9"/>
<path d="M836 249C836 247.343 834.657 246 833 246C831.343 246 830 247.343 830 249V300C830 301.657 831.343 303 833 303C834.657 303 836 301.657 836 300V249Z" fill="#C5CFD6"/>
<path fill-rule="evenodd" clip-rule="evenodd" d="M282 552.256C282 541.117 291.002 532 302 532V552.256L288.332 567C284.444 563.395 282 558.107 282 552.256Z" fill="#F2F2F2"/>
<path fill-rule="evenodd" clip-rule="evenodd" d="M301.471 552H321.668C321.668 557.221 319.538 562.113 316.171 565.668C312.468 569.556 307.195 572 301.471 572C296.198 572 291.372 569.891 287.668 566.557L301.471 552Z" fill="#AFB9C5"/>
<path fill-rule="evenodd" clip-rule="evenodd" d="M322 552C322 541.002 312.998 532 302 532V552H322ZM292 532L300 550L282 542C283.78 537.334 287.777 533.78 292 532Z" fill="#C5CFD6"/>
<path fill-rule="evenodd" clip-rule="evenodd" d="M932.766 561.179C930.845 563.219 928.123 564.5 925.095 564.5C919.278 564.5 914.562 559.799 914.562 554C914.562 548.201 919.278 543.5 925.095 543.5V524C908.546 524 895 537.503 895 554C895 570.497 908.546 584 925.095 584C933.788 584 941.645 580.334 947 574.502L932.766 561.179Z" fill="#F2F2F2"/>
<path fill-rule="evenodd" clip-rule="evenodd" d="M742.051 285.504C740.573 287.068 738.479 288.05 736.15 288.05C731.675 288.05 728.048 284.446 728.048 280C728.048 275.554 731.675 271.95 736.15 271.95V257C723.42 257 713 267.352 713 280C713 292.648 723.42 303 736.15 303C742.837 303 748.88 300.189 753 295.718L742.051 285.504Z" fill="#F2F2F2"/>
<path fill-rule="evenodd" clip-rule="evenodd" d="M736 257V271.95C740.446 271.95 744.05 275.554 744.05 280H759C759 267.352 748.648 257 736 257Z" fill="#AFB9C5"/>
<path fill-rule="evenodd" clip-rule="evenodd" d="M744.073 280C744.073 282.555 742.869 284.827 741 286.293L750.196 298C755.55 293.809 759 287.312 759 280H744.073Z" fill="#C5CFD6"/>
<path fill-rule="evenodd" clip-rule="evenodd" d="M378.007 302.987C378.003 302.997 377.999 303.007 377.993 303.019C377.999 303.009 378.007 302.969 378.007 302.987Z" fill="#C5CFD6"/>
<path fill-rule="evenodd" clip-rule="evenodd" d="M377.998 303.001C377.998 303.003 377.996 303.007 377.996 303.011C377.996 303.001 378.014 302.971 377.998 303.001Z" fill="#C5CFD6"/>
<path fill-rule="evenodd" clip-rule="evenodd" d="M378.067 302.833C378.053 302.873 378.035 302.911 378.019 302.951C378.027 302.931 378.035 302.915 378.043 302.895C377.835 303.415 377.967 303.077 378.067 302.833Z" fill="#C5CFD6"/>
<path fill-rule="evenodd" clip-rule="evenodd" d="M378.022 302.953C378.014 302.971 378.006 302.991 377.998 303.009C377.94 303.121 378.022 302.953 378.022 302.953Z" fill="#C5CFD6"/>
<path fill-rule="evenodd" clip-rule="evenodd" d="M377.999 303.002C377.999 303 377.999 303 378.001 302.998C377.999 303 377.999 303 377.999 303.002Z" fill="#C5CFD6"/>
<path fill-rule="evenodd" clip-rule="evenodd" d="M377.989 303.017C377.977 303.041 378.045 302.925 377.989 303.017Z" fill="#C5CFD6"/>
<path fill-rule="evenodd" clip-rule="evenodd" d="M377.998 303.002L378.002 302.998C378 303 378 303.002 377.998 303.002Z" fill="#C5CFD6"/>
<path d="M421 251H334C331.791 251 330 252.791 330 255V310C330 312.209 331.791 314 334 314H421C423.209 314 425 312.209 425 310V255C425 252.791 423.209 251 421 251Z" fill="#DDE3E9"/>
<path fill-rule="evenodd" clip-rule="evenodd" d="M366 269L338 314H394L366 269Z" fill="#AFB9C5"/>
<path fill-rule="evenodd" clip-rule="evenodd" d="M393.5 281L369 314H418L393.5 281Z" fill="#C5CFD6"/>
<path d="M404 281C408.971 281 413 276.971 413 272C413 267.029 408.971 263 404 263C399.029 263 395 267.029 395 272C395 276.971 399.029 281 404 281Z" fill="white"/>
<path fill-rule="evenodd" clip-rule="evenodd" d="M854.993 729.987C854.997 729.997 855.001 730.007 855.007 730.019C855.001 730.009 854.993 729.969 854.993 729.987Z" fill="#C5CFD6"/>
<path fill-rule="evenodd" clip-rule="evenodd" d="M855.002 730.001C855.002 730.003 855.004 730.007 855.004 730.011C855.004 730.001 854.986 729.971 855.002 730.001Z" fill="#C5CFD6"/>
<path fill-rule="evenodd" clip-rule="evenodd" d="M854.933 729.833C854.947 729.873 854.965 729.911 854.981 729.951C854.973 729.931 854.965 729.915 854.957 729.895C855.165 730.415 855.033 730.077 854.933 729.833Z" fill="#C5CFD6"/>
<path fill-rule="evenodd" clip-rule="evenodd" d="M854.978 729.953C854.986 729.971 854.994 729.991 855.002 730.009C855.06 730.121 854.978 729.953 854.978 729.953Z" fill="#C5CFD6"/>
<path fill-rule="evenodd" clip-rule="evenodd" d="M855.001 730.002C855.001 730 855.001 730 854.999 729.998C855.001 730 855.001 730 855.001 730.002Z" fill="#C5CFD6"/>
<path fill-rule="evenodd" clip-rule="evenodd" d="M855.011 730.017C855.023 730.041 854.955 729.925 855.011 730.017Z" fill="#C5CFD6"/>
<path fill-rule="evenodd" clip-rule="evenodd" d="M855.002 730.002L854.998 729.998C855 730 855 730.002 855.002 730.002Z" fill="#C5CFD6"/>
<path d="M788 653H922C924.209 653 926 654.791 926 657V743C926 745.209 924.209 747 922 747H788C785.791 747 784 745.209 784 743V657C784 654.791 785.791 653 788 653Z" fill="#DDE3E9"/>
<path fill-rule="evenodd" clip-rule="evenodd" d="M873.274 680L914.329 747H832.219L873.274 680Z" fill="#AFB9C5"/>
<path fill-rule="evenodd" clip-rule="evenodd" d="M830.944 697.946L867.239 747H794.649L830.944 697.946Z" fill="#C5CFD6"/>
<path d="M815.5 698C808.044 698 802 691.956 802 684.5C802 677.044 808.044 671 815.5 671C822.956 671 829 677.044 829 684.5C829 691.956 822.956 698 815.5 698Z" fill="white"/>
<path fill-rule="evenodd" clip-rule="evenodd" d="M266.737 519.24C270.418 532.602 275.214 562.637 270.32 567.348H239.358C239.355 567.294 239.351 567.24 239.348 567.186C227.873 565.935 218.947 556.348 218.947 544.708V522.617C218.947 510.126 229.224 500 241.902 500H244.037C255.55 500 265.083 508.351 266.737 519.24Z" fill="#FEF2D5"/>
<path fill-rule="evenodd" clip-rule="evenodd" d="M230.971 540.49C226.052 534.8 222.722 527.827 223.278 520.014C224.881 497.502 256.687 502.454 262.874 513.816C269.061 525.179 268.325 554 260.33 556.03C257.141 556.84 250.348 554.857 243.434 550.751L247.774 581H222.15L230.971 540.49Z" fill="#E7D7C9"/>
<path fill-rule="evenodd" clip-rule="evenodd" d="M237.898 536.686C239.078 549.181 238.605 563.45 235.087 566.837H204.125C202.4 537.305 219.072 548.742 219.072 520.936C220.112 519.936 221.094 518.945 222.066 518.091L222.031 517.273C227.393 506.459 234.195 501.052 242.437 501.052C254.8 501.052 258.703 506.72 262.025 511.532C259.541 519.932 249.899 521.178 241.331 526.414C240.321 525.605 239.034 525.121 237.631 525.121C234.388 525.121 231.759 527.711 231.759 530.906C231.759 534.102 234.388 536.692 237.631 536.692C237.72 536.692 237.809 536.69 237.898 536.686Z" fill="#FEF2D5"/>
<path fill-rule="evenodd" clip-rule="evenodd" d="M210 681L246.631 807.227L263.86 902H281.153L263.891 681H210Z" fill="#E6D7C9"/>
<path fill-rule="evenodd" clip-rule="evenodd" d="M193.538 681C196.094 746.574 195.086 782.34 194.514 788.298C193.942 794.256 190.694 834.156 168.564 904H186.55C215.858 836.997 226.089 797.096 229.45 788.298C232.812 779.5 242.739 743.734 257.233 681H193.538Z" fill="#E6D7C9"/>
<path fill-rule="evenodd" clip-rule="evenodd" d="M209.214 681C218.742 724.435 235.222 793.768 258.653 889H283.946C285.814 791.254 277.867 726.92 264.105 681H209.214Z" fill="#F5E3DB"/>
<path fill-rule="evenodd" clip-rule="evenodd" d="M193.41 681C195.913 746.574 189.426 811.177 169.331 890.021H196.317C225.679 824.018 246.723 759.734 261.106 681H193.41Z" fill="#FDF1EC"/>
<path fill-rule="evenodd" clip-rule="evenodd" d="M166 917L166.992 901C172.803 902.699 180.081 902.033 188.826 899C198.229 905.661 210.066 910.209 224.337 912.644L224.337 912.644C225.426 912.83 226.158 913.863 225.972 914.952C225.96 915.023 225.944 915.092 225.925 915.161L224.553 920H188.826H167.985L166 917Z" fill="#DBC8B6"/>
<path fill-rule="evenodd" clip-rule="evenodd" d="M260 917L260.992 901C266.803 902.699 274.081 902.033 282.826 899C292.229 905.661 304.066 910.209 318.337 912.644L318.337 912.644C319.426 912.83 320.158 913.863 319.972 914.952C319.96 915.023 319.944 915.092 319.925 915.161L318.553 920H282.826H261.985L260 917Z" fill="#DBC8B6"/>
<path fill-rule="evenodd" clip-rule="evenodd" d="M306 649.617L342.235 633.704C348.582 627.379 354.711 622.572 360.623 619.282C362.39 618.719 365.41 618.549 362.188 623.255C358.966 627.961 355.789 633.056 357.076 634.705C358.364 636.355 362.093 634.534 363.566 637.216C364.549 639.004 358.262 641.143 344.707 643.633L317.57 664.439L306 649.617ZM159.508 654L180 658.066C159.392 696.471 148.34 716.826 146.845 719.13C143.48 724.315 146.62 733.817 147.779 738.821C140.504 740.515 143.373 729.565 134.167 731.851C125.764 733.938 118.639 739.293 110.804 732.071C109.841 731.183 109.135 728.407 112.42 726.984C120.603 723.437 132.692 716.796 134.652 714.218C137.326 710.702 145.611 690.629 159.508 654Z" fill="#E6D7C9"/>
<path fill-rule="evenodd" clip-rule="evenodd" d="M235.695 577.332L244.342 575.849C263.176 594.119 270.862 638.012 283.414 643.823C295.281 649.316 312.104 644 332.1 636.823L338.224 650.505C320.055 670.161 281.349 686.767 265.66 677.287C240.576 662.13 234.786 607.994 235.695 577.332Z" fill="#F1841B"/>
<path fill-rule="evenodd" clip-rule="evenodd" d="M198 686C232.672 686 258.176 686 274.511 686C278.008 686 277.349 680.952 276.843 678.404C271.011 649.004 248.241 617.312 248.241 575.461L226.172 572C207.917 601.358 201.605 637.505 198 686Z" fill="#F5E3DB"/>
<path fill-rule="evenodd" clip-rule="evenodd" d="M190.369 656.233C174.771 684.368 161.661 704.623 151.037 717L135 713.859C145.331 649.791 175.247 602.504 224.748 572H225H233.486C253.299 639.537 258.761 684.537 249.872 707H181C182.09 690.563 185.583 673.181 190.369 656.233H190.369Z" fill="#FF932B"/>
</svg>
