<svg width="486" height="648" viewBox="0 0 486 648" fill="none" xmlns="http://www.w3.org/2000/svg">
<path fill-rule="evenodd" clip-rule="evenodd" d="M194.742 85.3546C188.254 109.293 179.798 163.102 188.426 171.542H243.015C243.02 171.445 243.026 171.349 243.031 171.252C263.264 169.01 279 151.836 279 130.981V91.4039C279 69.0257 260.881 50.8846 238.529 50.8846H234.765C214.467 50.8846 197.659 65.8457 194.742 85.3546Z" fill="#FEF2D5"/>
<path fill-rule="evenodd" clip-rule="evenodd" d="M257.8 123.424C266.474 113.23 272.345 100.738 271.364 86.7403C268.537 46.4086 212.462 55.2811 201.554 75.637C190.646 95.993 191.942 147.628 206.039 151.266C211.661 152.717 223.638 149.163 235.827 141.807L228.176 196H273.353L257.8 123.424Z" fill="#E7D7C9"/>
<path fill-rule="evenodd" clip-rule="evenodd" d="M245.588 116.61C243.507 138.996 244.341 164.56 250.544 170.628H305.132C308.174 117.72 278.779 138.208 278.779 88.3938C276.947 86.601 275.215 84.8266 273.501 83.2964L273.562 81.8314C264.11 62.4566 252.117 52.7693 237.586 52.7693C215.788 52.7693 208.908 62.9242 203.049 71.5459C207.43 86.5947 224.43 88.8261 239.535 98.2064C241.316 96.7581 243.586 95.8901 246.059 95.8901C251.777 95.8901 256.412 100.531 256.412 106.255C256.412 111.98 251.777 116.621 246.059 116.621C245.901 116.621 245.744 116.617 245.588 116.61Z" fill="#FEF2D5"/>
<path fill-rule="evenodd" clip-rule="evenodd" d="M146.5 282.968L80.7981 273.982C67.6551 266.652 55.5641 261.69 44.5252 259.096C41.4187 259.005 36.477 260.137 43.8388 266.291C51.2007 272.444 58.6704 279.251 57.3587 282.535C56.0471 285.819 49.2006 284.597 48.0664 289.648C47.3103 293.016 58.4217 293.563 81.4006 291.29L134.712 312.481L146.5 282.968ZM352.894 298.216L316.455 298.353C356.411 388.505 377.245 435.708 378.956 439.96C382.807 449.528 374.659 464.1 371.174 471.93C382.523 477.022 381.314 458.165 395.63 464.843C408.698 470.939 418.638 481.983 433.736 472.643C435.592 471.495 437.626 467.171 432.711 463.792C420.467 455.375 402.823 440.643 400.439 435.793C397.188 429.181 381.34 383.321 352.894 298.216Z" fill="#E6D7C9"/>
<path fill-rule="evenodd" clip-rule="evenodd" d="M253.084 182.342L224.554 184.248C217.528 247.985 179.255 288.243 93.5646 274.614L82.1802 356.693C162.271 367.071 232.51 334.922 246.906 247.876C250.632 225.343 253.575 201.893 253.084 182.342Z" fill="#E37811"/>
<path fill-rule="evenodd" clip-rule="evenodd" d="M267.16 174.027L223.933 183.953C223.933 258.498 200.249 306.059 188.102 360.866H304.846C306.491 379.805 307.501 399.27 308.027 419.262H395.441C375.633 313.589 333.823 231.835 270.014 174H267.183L267.16 174.027Z" fill="#FF932B"/>
<path fill-rule="evenodd" clip-rule="evenodd" d="M286.427 254.518C289.436 300.97 287.666 336.419 281.119 360.866H304.846C301.588 323.349 295.84 287.9 286.427 254.518V254.518Z" fill="#E37811"/>
<g clip-path="url(#clip0)">
<path fill-rule="evenodd" clip-rule="evenodd" d="M335.951 428.875H210.799L194.4 629.661H380.7L335.951 428.875Z" fill="#FCFCFC"/>
<path fill-rule="evenodd" clip-rule="evenodd" d="M335.951 428.875H297.46L274.422 629.661H380.7L335.951 428.875Z" fill="black" fill-opacity="0.05"/>
<path fill-rule="evenodd" clip-rule="evenodd" d="M68.1156 394.475C54.772 386.467 32.3846 396.756 32.3999 408.21C32.4459 442.481 63.7361 603.998 65.3698 614.208C67.0035 624.419 84.5046 627.115 85.5237 614.242C87.1454 593.757 90.1581 522.845 87.1437 490.022C85.8994 476.473 84.5594 463.57 83.2402 452.058C99.6593 481.695 125.052 524.128 159.419 579.357L178.076 570.837C163.425 522.59 151.412 488.529 142.036 468.654C125.982 434.622 110.929 405.479 104.594 395.214C94.628 379.066 77.2813 384.7 68.1156 394.475Z" fill="#E6D7C9"/>
<path fill-rule="evenodd" clip-rule="evenodd" d="M176.742 544.044L112.708 392.421C97.3673 367.756 54.3572 397.44 59.5886 411.746C71.4654 444.224 131.868 549.37 135.407 559.046L176.742 544.044Z" fill="#0F2648"/>
<path fill-rule="evenodd" clip-rule="evenodd" d="M180.299 561.276C184.287 564.558 186.882 567.239 188.083 569.318C189.544 571.847 191.254 575.78 193.213 581.118C190.278 582.812 163.901 598.033 114.083 626.782C108.102 621.174 107.17 616.821 111.288 613.722C115.405 610.624 118.803 608.011 121.481 605.883L148.793 568.27C149.319 567.547 150.332 567.386 151.056 567.911C151.068 567.92 151.081 567.929 151.093 567.938L156.768 572.306C161.974 571.852 165.859 570.885 168.423 569.405C170.507 568.203 172.898 565.702 175.597 561.901L175.597 561.901C176.633 560.443 178.656 560.1 180.115 561.135C180.178 561.18 180.239 561.227 180.299 561.276Z" fill="#E0F2FF"/>
<path fill-rule="evenodd" clip-rule="evenodd" d="M89.6214 606.023C91.4338 610.859 92.34 614.478 92.34 616.878C92.34 619.798 91.8533 624.059 90.88 629.661C87.491 629.661 57.034 629.661 -0.491005 629.661C-2.86541 621.815 -1.49477 617.579 3.62093 616.954C8.73663 616.328 12.9863 615.763 16.37 615.259L58.8384 596.335C59.6555 595.971 60.6133 596.338 60.9776 597.155C60.9839 597.169 60.9899 597.183 60.9957 597.197L63.7256 603.816C68.4614 606.024 72.3097 607.129 75.2705 607.129C77.6762 607.129 80.9984 606.158 85.2371 604.215L85.2371 604.215C86.8637 603.47 88.7869 604.184 89.5326 605.81C89.5647 605.88 89.5943 605.951 89.6214 606.023Z" fill="#E0F2FF"/>
<path fill-rule="evenodd" clip-rule="evenodd" d="M27.9119 419.86C27.9119 462.879 48.351 563.224 48.364 572.696L92.3399 572.73C85.9032 483.193 83.6208 437.942 85.4927 436.978C88.3005 435.531 200.595 448.184 234.274 448.184C282.839 448.184 302.93 417.573 304.56 360.866H208.354C188.766 362.961 86.5908 383.56 48.6451 390.642C32.3999 393.673 27.9119 408.01 27.9119 419.86Z" fill="#2E5184"/>
</g>
<defs>
<clipPath id="clip0">
<rect width="486" height="387" fill="white" transform="matrix(-1 0 0 1 486 360.866)"/>
</clipPath>
</defs>
</svg>
